<mxfile host="app.diagrams.net" modified="2023-12-26T16:41:56.725Z" agent="Mozilla/5.0 (Windows NT 10.0; Win64; x64) AppleWebKit/537.36 (KHTML, like Gecko) Chrome/120.0.0.0 Safari/537.36 Edg/120.0.0.0" etag="V-3mUGaHKd-SFMNN7Uir" version="22.1.11" type="github">
  <diagram id="C5RBs43oDa-KdzZeNtuy" name="Page-1">
    <mxGraphModel dx="679" dy="358" grid="1" gridSize="10" guides="1" tooltips="1" connect="1" arrows="1" fold="1" page="1" pageScale="1" pageWidth="1654" pageHeight="2336" math="0" shadow="0">
      <root>
        <mxCell id="WIyWlLk6GJQsqaUBKTNV-0" />
        <mxCell id="WIyWlLk6GJQsqaUBKTNV-1" parent="WIyWlLk6GJQsqaUBKTNV-0" />
        <mxCell id="ANaxV4xXnxvf2CdGt_C1-0" value="超市零售訊息管理系統" style="rounded=0;whiteSpace=wrap;html=1;" parent="WIyWlLk6GJQsqaUBKTNV-1" vertex="1">
          <mxGeometry x="360" y="200" width="130" height="30" as="geometry" />
        </mxCell>
        <mxCell id="ANaxV4xXnxvf2CdGt_C1-1" value="訊息查詢" style="rounded=0;whiteSpace=wrap;html=1;" parent="WIyWlLk6GJQsqaUBKTNV-1" vertex="1">
          <mxGeometry x="270" y="270" width="60" height="30" as="geometry" />
        </mxCell>
        <mxCell id="ANaxV4xXnxvf2CdGt_C1-2" value="訊息管理" style="rounded=0;whiteSpace=wrap;html=1;" parent="WIyWlLk6GJQsqaUBKTNV-1" vertex="1">
          <mxGeometry x="520" y="270" width="60" height="30" as="geometry" />
        </mxCell>
        <mxCell id="ANaxV4xXnxvf2CdGt_C1-4" value="" style="endArrow=block;endFill=1;html=1;edgeStyle=orthogonalEdgeStyle;align=left;verticalAlign=top;rounded=0;exitX=0.5;exitY=1;exitDx=0;exitDy=0;entryX=0.5;entryY=0;entryDx=0;entryDy=0;" parent="WIyWlLk6GJQsqaUBKTNV-1" source="ANaxV4xXnxvf2CdGt_C1-0" target="ANaxV4xXnxvf2CdGt_C1-2" edge="1">
          <mxGeometry x="-1" relative="1" as="geometry">
            <mxPoint x="340" y="310" as="sourcePoint" />
            <mxPoint x="500" y="310" as="targetPoint" />
          </mxGeometry>
        </mxCell>
        <mxCell id="ANaxV4xXnxvf2CdGt_C1-6" value="" style="endArrow=block;endFill=1;html=1;edgeStyle=orthogonalEdgeStyle;align=left;verticalAlign=top;rounded=0;exitX=0.5;exitY=1;exitDx=0;exitDy=0;entryX=0.5;entryY=0;entryDx=0;entryDy=0;" parent="WIyWlLk6GJQsqaUBKTNV-1" source="ANaxV4xXnxvf2CdGt_C1-0" target="ANaxV4xXnxvf2CdGt_C1-1" edge="1">
          <mxGeometry x="-1" relative="1" as="geometry">
            <mxPoint x="340" y="310" as="sourcePoint" />
            <mxPoint x="500" y="310" as="targetPoint" />
          </mxGeometry>
        </mxCell>
        <mxCell id="ANaxV4xXnxvf2CdGt_C1-8" value="員工訊息查詢" style="rounded=0;whiteSpace=wrap;html=1;" parent="WIyWlLk6GJQsqaUBKTNV-1" vertex="1">
          <mxGeometry x="200" y="330" width="20" height="90" as="geometry" />
        </mxCell>
        <mxCell id="ANaxV4xXnxvf2CdGt_C1-9" value="商品訊息查詢" style="rounded=0;whiteSpace=wrap;html=1;" parent="WIyWlLk6GJQsqaUBKTNV-1" vertex="1">
          <mxGeometry x="230" y="330" width="20" height="90" as="geometry" />
        </mxCell>
        <mxCell id="ANaxV4xXnxvf2CdGt_C1-10" value="會員訊息查詢" style="rounded=0;whiteSpace=wrap;html=1;" parent="WIyWlLk6GJQsqaUBKTNV-1" vertex="1">
          <mxGeometry x="260" y="330" width="20" height="90" as="geometry" />
        </mxCell>
        <mxCell id="ANaxV4xXnxvf2CdGt_C1-11" value="倉庫&lt;br&gt;訊息查詢" style="rounded=0;whiteSpace=wrap;html=1;" parent="WIyWlLk6GJQsqaUBKTNV-1" vertex="1">
          <mxGeometry x="290" y="330" width="20" height="90" as="geometry" />
        </mxCell>
        <mxCell id="ANaxV4xXnxvf2CdGt_C1-12" value="供貨&lt;br&gt;訊息查詢" style="rounded=0;whiteSpace=wrap;html=1;" parent="WIyWlLk6GJQsqaUBKTNV-1" vertex="1">
          <mxGeometry x="320" y="330" width="20" height="90" as="geometry" />
        </mxCell>
        <mxCell id="ANaxV4xXnxvf2CdGt_C1-13" value="退貨&lt;br&gt;訊息查詢" style="rounded=0;whiteSpace=wrap;html=1;" parent="WIyWlLk6GJQsqaUBKTNV-1" vertex="1">
          <mxGeometry x="350" y="330" width="20" height="90" as="geometry" />
        </mxCell>
        <mxCell id="ANaxV4xXnxvf2CdGt_C1-14" value="" style="endArrow=block;endFill=1;html=1;edgeStyle=orthogonalEdgeStyle;align=left;verticalAlign=top;rounded=0;exitX=0.5;exitY=1;exitDx=0;exitDy=0;entryX=0.5;entryY=0;entryDx=0;entryDy=0;" parent="WIyWlLk6GJQsqaUBKTNV-1" source="ANaxV4xXnxvf2CdGt_C1-1" target="ANaxV4xXnxvf2CdGt_C1-8" edge="1">
          <mxGeometry x="-1" relative="1" as="geometry">
            <mxPoint x="340" y="310" as="sourcePoint" />
            <mxPoint x="500" y="310" as="targetPoint" />
          </mxGeometry>
        </mxCell>
        <mxCell id="ANaxV4xXnxvf2CdGt_C1-16" value="" style="endArrow=block;endFill=1;html=1;edgeStyle=orthogonalEdgeStyle;align=left;verticalAlign=top;rounded=0;exitX=0.5;exitY=1;exitDx=0;exitDy=0;entryX=0.5;entryY=0;entryDx=0;entryDy=0;" parent="WIyWlLk6GJQsqaUBKTNV-1" source="ANaxV4xXnxvf2CdGt_C1-1" target="ANaxV4xXnxvf2CdGt_C1-9" edge="1">
          <mxGeometry x="-1" relative="1" as="geometry">
            <mxPoint x="340" y="310" as="sourcePoint" />
            <mxPoint x="500" y="310" as="targetPoint" />
          </mxGeometry>
        </mxCell>
        <mxCell id="ANaxV4xXnxvf2CdGt_C1-18" value="" style="endArrow=block;endFill=1;html=1;edgeStyle=orthogonalEdgeStyle;align=left;verticalAlign=top;rounded=0;exitX=0.5;exitY=1;exitDx=0;exitDy=0;entryX=0.5;entryY=0;entryDx=0;entryDy=0;" parent="WIyWlLk6GJQsqaUBKTNV-1" source="ANaxV4xXnxvf2CdGt_C1-1" target="ANaxV4xXnxvf2CdGt_C1-10" edge="1">
          <mxGeometry x="-1" relative="1" as="geometry">
            <mxPoint x="340" y="310" as="sourcePoint" />
            <mxPoint x="500" y="310" as="targetPoint" />
            <mxPoint as="offset" />
          </mxGeometry>
        </mxCell>
        <mxCell id="ANaxV4xXnxvf2CdGt_C1-20" value="" style="endArrow=block;endFill=1;html=1;edgeStyle=orthogonalEdgeStyle;align=left;verticalAlign=top;rounded=0;exitX=0.5;exitY=1;exitDx=0;exitDy=0;entryX=0.5;entryY=0;entryDx=0;entryDy=0;" parent="WIyWlLk6GJQsqaUBKTNV-1" source="ANaxV4xXnxvf2CdGt_C1-1" target="ANaxV4xXnxvf2CdGt_C1-11" edge="1">
          <mxGeometry x="-1" relative="1" as="geometry">
            <mxPoint x="350" y="280" as="sourcePoint" />
            <mxPoint x="510" y="280" as="targetPoint" />
          </mxGeometry>
        </mxCell>
        <mxCell id="ANaxV4xXnxvf2CdGt_C1-22" value="" style="endArrow=block;endFill=1;html=1;edgeStyle=orthogonalEdgeStyle;align=left;verticalAlign=top;rounded=0;exitX=0.5;exitY=1;exitDx=0;exitDy=0;entryX=0.5;entryY=0;entryDx=0;entryDy=0;" parent="WIyWlLk6GJQsqaUBKTNV-1" source="ANaxV4xXnxvf2CdGt_C1-1" target="ANaxV4xXnxvf2CdGt_C1-12" edge="1">
          <mxGeometry x="-1" relative="1" as="geometry">
            <mxPoint x="330" y="350" as="sourcePoint" />
            <mxPoint x="490" y="350" as="targetPoint" />
          </mxGeometry>
        </mxCell>
        <mxCell id="ANaxV4xXnxvf2CdGt_C1-24" value="" style="endArrow=block;endFill=1;html=1;edgeStyle=orthogonalEdgeStyle;align=left;verticalAlign=top;rounded=0;exitX=0.5;exitY=1;exitDx=0;exitDy=0;entryX=0.5;entryY=0;entryDx=0;entryDy=0;" parent="WIyWlLk6GJQsqaUBKTNV-1" source="ANaxV4xXnxvf2CdGt_C1-1" target="ANaxV4xXnxvf2CdGt_C1-13" edge="1">
          <mxGeometry x="-1" relative="1" as="geometry">
            <mxPoint x="330" y="350" as="sourcePoint" />
            <mxPoint x="490" y="350" as="targetPoint" />
          </mxGeometry>
        </mxCell>
        <mxCell id="ANaxV4xXnxvf2CdGt_C1-26" value="刪除&lt;br&gt;訊息" style="rounded=0;whiteSpace=wrap;html=1;" parent="WIyWlLk6GJQsqaUBKTNV-1" vertex="1">
          <mxGeometry x="540" y="330" width="20" height="90" as="geometry" />
        </mxCell>
        <mxCell id="ANaxV4xXnxvf2CdGt_C1-27" value="新增&lt;br&gt;訊息" style="rounded=0;whiteSpace=wrap;html=1;" parent="WIyWlLk6GJQsqaUBKTNV-1" vertex="1">
          <mxGeometry x="500" y="330" width="20" height="90" as="geometry" />
        </mxCell>
        <mxCell id="ANaxV4xXnxvf2CdGt_C1-28" value="修改訊息" style="rounded=0;whiteSpace=wrap;html=1;" parent="WIyWlLk6GJQsqaUBKTNV-1" vertex="1">
          <mxGeometry x="580" y="330" width="20" height="90" as="geometry" />
        </mxCell>
        <mxCell id="ANaxV4xXnxvf2CdGt_C1-29" value="" style="endArrow=block;endFill=1;html=1;edgeStyle=orthogonalEdgeStyle;align=left;verticalAlign=top;rounded=0;exitX=0.5;exitY=1;exitDx=0;exitDy=0;entryX=0.5;entryY=0;entryDx=0;entryDy=0;" parent="WIyWlLk6GJQsqaUBKTNV-1" source="ANaxV4xXnxvf2CdGt_C1-2" target="ANaxV4xXnxvf2CdGt_C1-27" edge="1">
          <mxGeometry x="-1" relative="1" as="geometry">
            <mxPoint x="330" y="350" as="sourcePoint" />
            <mxPoint x="490" y="350" as="targetPoint" />
          </mxGeometry>
        </mxCell>
        <mxCell id="ANaxV4xXnxvf2CdGt_C1-31" value="" style="endArrow=block;endFill=1;html=1;edgeStyle=orthogonalEdgeStyle;align=left;verticalAlign=top;rounded=0;exitX=0.5;exitY=1;exitDx=0;exitDy=0;entryX=0.5;entryY=0;entryDx=0;entryDy=0;" parent="WIyWlLk6GJQsqaUBKTNV-1" source="ANaxV4xXnxvf2CdGt_C1-2" target="ANaxV4xXnxvf2CdGt_C1-26" edge="1">
          <mxGeometry x="-1" relative="1" as="geometry">
            <mxPoint x="330" y="350" as="sourcePoint" />
            <mxPoint x="490" y="350" as="targetPoint" />
          </mxGeometry>
        </mxCell>
        <mxCell id="ANaxV4xXnxvf2CdGt_C1-33" value="" style="endArrow=block;endFill=1;html=1;edgeStyle=orthogonalEdgeStyle;align=left;verticalAlign=top;rounded=0;exitX=0.5;exitY=1;exitDx=0;exitDy=0;entryX=0.5;entryY=0;entryDx=0;entryDy=0;" parent="WIyWlLk6GJQsqaUBKTNV-1" source="ANaxV4xXnxvf2CdGt_C1-2" target="ANaxV4xXnxvf2CdGt_C1-28" edge="1">
          <mxGeometry x="-1" relative="1" as="geometry">
            <mxPoint x="330" y="350" as="sourcePoint" />
            <mxPoint x="490" y="350" as="targetPoint" />
          </mxGeometry>
        </mxCell>
        <mxCell id="ANaxV4xXnxvf2CdGt_C1-35" value="員工" style="html=1;whiteSpace=wrap;" parent="WIyWlLk6GJQsqaUBKTNV-1" vertex="1">
          <mxGeometry x="270" y="770" width="50" height="30" as="geometry" />
        </mxCell>
        <mxCell id="ANaxV4xXnxvf2CdGt_C1-36" value="員工編號" style="ellipse;whiteSpace=wrap;html=1;" parent="WIyWlLk6GJQsqaUBKTNV-1" vertex="1">
          <mxGeometry x="160" y="720" width="70" height="30" as="geometry" />
        </mxCell>
        <mxCell id="ANaxV4xXnxvf2CdGt_C1-37" value="員工姓名" style="ellipse;whiteSpace=wrap;html=1;" parent="WIyWlLk6GJQsqaUBKTNV-1" vertex="1">
          <mxGeometry x="220" y="680" width="70" height="30" as="geometry" />
        </mxCell>
        <mxCell id="ANaxV4xXnxvf2CdGt_C1-38" value="員工性別" style="ellipse;whiteSpace=wrap;html=1;" parent="WIyWlLk6GJQsqaUBKTNV-1" vertex="1">
          <mxGeometry x="310" y="680" width="70" height="30" as="geometry" />
        </mxCell>
        <mxCell id="ANaxV4xXnxvf2CdGt_C1-39" value="員工年齡" style="ellipse;whiteSpace=wrap;html=1;" parent="WIyWlLk6GJQsqaUBKTNV-1" vertex="1">
          <mxGeometry x="370" y="720" width="70" height="30" as="geometry" />
        </mxCell>
        <mxCell id="ANaxV4xXnxvf2CdGt_C1-40" value="員工工齡" style="ellipse;whiteSpace=wrap;html=1;" parent="WIyWlLk6GJQsqaUBKTNV-1" vertex="1">
          <mxGeometry x="379" y="780" width="70" height="30" as="geometry" />
        </mxCell>
        <mxCell id="ANaxV4xXnxvf2CdGt_C1-41" value="電話" style="ellipse;whiteSpace=wrap;html=1;" parent="WIyWlLk6GJQsqaUBKTNV-1" vertex="1">
          <mxGeometry x="350" y="840" width="70" height="30" as="geometry" />
        </mxCell>
        <mxCell id="ANaxV4xXnxvf2CdGt_C1-42" value="身分字號" style="ellipse;whiteSpace=wrap;html=1;" parent="WIyWlLk6GJQsqaUBKTNV-1" vertex="1">
          <mxGeometry x="265" y="860" width="70" height="30" as="geometry" />
        </mxCell>
        <mxCell id="ANaxV4xXnxvf2CdGt_C1-43" value="所屬部門" style="ellipse;whiteSpace=wrap;html=1;" parent="WIyWlLk6GJQsqaUBKTNV-1" vertex="1">
          <mxGeometry x="175" y="830" width="70" height="30" as="geometry" />
        </mxCell>
        <mxCell id="ANaxV4xXnxvf2CdGt_C1-44" value="工資" style="ellipse;whiteSpace=wrap;html=1;" parent="WIyWlLk6GJQsqaUBKTNV-1" vertex="1">
          <mxGeometry x="130" y="770" width="70" height="30" as="geometry" />
        </mxCell>
        <mxCell id="ANaxV4xXnxvf2CdGt_C1-45" value="" style="endArrow=none;html=1;rounded=0;exitX=0.5;exitY=0;exitDx=0;exitDy=0;entryX=0.5;entryY=1;entryDx=0;entryDy=0;" parent="WIyWlLk6GJQsqaUBKTNV-1" source="ANaxV4xXnxvf2CdGt_C1-35" target="ANaxV4xXnxvf2CdGt_C1-37" edge="1">
          <mxGeometry relative="1" as="geometry">
            <mxPoint x="210" y="720" as="sourcePoint" />
            <mxPoint x="370" y="720" as="targetPoint" />
          </mxGeometry>
        </mxCell>
        <mxCell id="ANaxV4xXnxvf2CdGt_C1-48" value="" style="endArrow=none;html=1;rounded=0;exitX=0.75;exitY=0;exitDx=0;exitDy=0;entryX=0.5;entryY=1;entryDx=0;entryDy=0;" parent="WIyWlLk6GJQsqaUBKTNV-1" source="ANaxV4xXnxvf2CdGt_C1-35" target="ANaxV4xXnxvf2CdGt_C1-38" edge="1">
          <mxGeometry relative="1" as="geometry">
            <mxPoint x="210" y="720" as="sourcePoint" />
            <mxPoint x="370" y="720" as="targetPoint" />
          </mxGeometry>
        </mxCell>
        <mxCell id="ANaxV4xXnxvf2CdGt_C1-51" value="" style="endArrow=none;html=1;rounded=0;exitX=1;exitY=0;exitDx=0;exitDy=0;entryX=0;entryY=0.5;entryDx=0;entryDy=0;" parent="WIyWlLk6GJQsqaUBKTNV-1" source="ANaxV4xXnxvf2CdGt_C1-35" target="ANaxV4xXnxvf2CdGt_C1-39" edge="1">
          <mxGeometry relative="1" as="geometry">
            <mxPoint x="210" y="720" as="sourcePoint" />
            <mxPoint x="340" y="750" as="targetPoint" />
          </mxGeometry>
        </mxCell>
        <mxCell id="ANaxV4xXnxvf2CdGt_C1-54" value="" style="endArrow=none;html=1;rounded=0;exitX=1;exitY=0.5;exitDx=0;exitDy=0;entryX=0;entryY=0.5;entryDx=0;entryDy=0;" parent="WIyWlLk6GJQsqaUBKTNV-1" source="ANaxV4xXnxvf2CdGt_C1-35" target="ANaxV4xXnxvf2CdGt_C1-40" edge="1">
          <mxGeometry relative="1" as="geometry">
            <mxPoint x="210" y="720" as="sourcePoint" />
            <mxPoint x="370" y="720" as="targetPoint" />
          </mxGeometry>
        </mxCell>
        <mxCell id="ANaxV4xXnxvf2CdGt_C1-57" value="" style="endArrow=none;html=1;rounded=0;exitX=1;exitY=1;exitDx=0;exitDy=0;entryX=0;entryY=0;entryDx=0;entryDy=0;" parent="WIyWlLk6GJQsqaUBKTNV-1" source="ANaxV4xXnxvf2CdGt_C1-35" target="ANaxV4xXnxvf2CdGt_C1-41" edge="1">
          <mxGeometry relative="1" as="geometry">
            <mxPoint x="210" y="720" as="sourcePoint" />
            <mxPoint x="370" y="720" as="targetPoint" />
          </mxGeometry>
        </mxCell>
        <mxCell id="ANaxV4xXnxvf2CdGt_C1-60" value="" style="endArrow=none;html=1;rounded=0;exitX=0.5;exitY=1;exitDx=0;exitDy=0;entryX=0.5;entryY=0;entryDx=0;entryDy=0;" parent="WIyWlLk6GJQsqaUBKTNV-1" source="ANaxV4xXnxvf2CdGt_C1-35" target="ANaxV4xXnxvf2CdGt_C1-42" edge="1">
          <mxGeometry relative="1" as="geometry">
            <mxPoint x="210" y="720" as="sourcePoint" />
            <mxPoint x="370" y="720" as="targetPoint" />
          </mxGeometry>
        </mxCell>
        <mxCell id="ANaxV4xXnxvf2CdGt_C1-63" value="" style="endArrow=none;html=1;rounded=0;exitX=0;exitY=1;exitDx=0;exitDy=0;entryX=1;entryY=0;entryDx=0;entryDy=0;" parent="WIyWlLk6GJQsqaUBKTNV-1" source="ANaxV4xXnxvf2CdGt_C1-35" target="ANaxV4xXnxvf2CdGt_C1-43" edge="1">
          <mxGeometry relative="1" as="geometry">
            <mxPoint x="305" y="810" as="sourcePoint" />
            <mxPoint x="310" y="870" as="targetPoint" />
          </mxGeometry>
        </mxCell>
        <mxCell id="ANaxV4xXnxvf2CdGt_C1-64" value="" style="endArrow=none;html=1;rounded=0;exitX=0;exitY=0.5;exitDx=0;exitDy=0;entryX=1;entryY=0.5;entryDx=0;entryDy=0;" parent="WIyWlLk6GJQsqaUBKTNV-1" source="ANaxV4xXnxvf2CdGt_C1-35" target="ANaxV4xXnxvf2CdGt_C1-44" edge="1">
          <mxGeometry relative="1" as="geometry">
            <mxPoint x="280" y="810" as="sourcePoint" />
            <mxPoint x="245" y="844" as="targetPoint" />
          </mxGeometry>
        </mxCell>
        <mxCell id="ANaxV4xXnxvf2CdGt_C1-65" value="" style="endArrow=none;html=1;rounded=0;exitX=0;exitY=0;exitDx=0;exitDy=0;entryX=1;entryY=0.5;entryDx=0;entryDy=0;" parent="WIyWlLk6GJQsqaUBKTNV-1" source="ANaxV4xXnxvf2CdGt_C1-35" target="ANaxV4xXnxvf2CdGt_C1-36" edge="1">
          <mxGeometry relative="1" as="geometry">
            <mxPoint x="280" y="795" as="sourcePoint" />
            <mxPoint x="210" y="795" as="targetPoint" />
          </mxGeometry>
        </mxCell>
        <mxCell id="ANaxV4xXnxvf2CdGt_C1-66" value="商品" style="html=1;whiteSpace=wrap;" parent="WIyWlLk6GJQsqaUBKTNV-1" vertex="1">
          <mxGeometry x="750" y="760" width="50" height="30" as="geometry" />
        </mxCell>
        <mxCell id="ANaxV4xXnxvf2CdGt_C1-67" value="商品類別" style="ellipse;whiteSpace=wrap;html=1;" parent="WIyWlLk6GJQsqaUBKTNV-1" vertex="1">
          <mxGeometry x="640" y="710" width="70" height="30" as="geometry" />
        </mxCell>
        <mxCell id="ANaxV4xXnxvf2CdGt_C1-68" value="單件成本" style="ellipse;whiteSpace=wrap;html=1;" parent="WIyWlLk6GJQsqaUBKTNV-1" vertex="1">
          <mxGeometry x="740" y="680" width="70" height="30" as="geometry" />
        </mxCell>
        <mxCell id="ANaxV4xXnxvf2CdGt_C1-69" value="銷售單價" style="ellipse;whiteSpace=wrap;html=1;" parent="WIyWlLk6GJQsqaUBKTNV-1" vertex="1">
          <mxGeometry x="840" y="700" width="70" height="30" as="geometry" />
        </mxCell>
        <mxCell id="ANaxV4xXnxvf2CdGt_C1-70" value="供貨商" style="ellipse;whiteSpace=wrap;html=1;" parent="WIyWlLk6GJQsqaUBKTNV-1" vertex="1">
          <mxGeometry x="850" y="800" width="70" height="30" as="geometry" />
        </mxCell>
        <mxCell id="ANaxV4xXnxvf2CdGt_C1-74" value="商品編號" style="ellipse;whiteSpace=wrap;html=1;" parent="WIyWlLk6GJQsqaUBKTNV-1" vertex="1">
          <mxGeometry x="730" y="850" width="70" height="30" as="geometry" />
        </mxCell>
        <mxCell id="ANaxV4xXnxvf2CdGt_C1-75" value="商品名稱" style="ellipse;whiteSpace=wrap;html=1;" parent="WIyWlLk6GJQsqaUBKTNV-1" vertex="1">
          <mxGeometry x="620" y="800" width="70" height="30" as="geometry" />
        </mxCell>
        <mxCell id="ANaxV4xXnxvf2CdGt_C1-76" value="" style="endArrow=none;html=1;rounded=0;exitX=0.5;exitY=0;exitDx=0;exitDy=0;entryX=0.5;entryY=1;entryDx=0;entryDy=0;" parent="WIyWlLk6GJQsqaUBKTNV-1" source="ANaxV4xXnxvf2CdGt_C1-66" target="ANaxV4xXnxvf2CdGt_C1-68" edge="1">
          <mxGeometry relative="1" as="geometry">
            <mxPoint x="690" y="710" as="sourcePoint" />
            <mxPoint x="850" y="710" as="targetPoint" />
          </mxGeometry>
        </mxCell>
        <mxCell id="ANaxV4xXnxvf2CdGt_C1-77" value="" style="endArrow=none;html=1;rounded=0;exitX=1;exitY=0;exitDx=0;exitDy=0;entryX=0.5;entryY=1;entryDx=0;entryDy=0;" parent="WIyWlLk6GJQsqaUBKTNV-1" source="ANaxV4xXnxvf2CdGt_C1-66" target="ANaxV4xXnxvf2CdGt_C1-69" edge="1">
          <mxGeometry relative="1" as="geometry">
            <mxPoint x="690" y="710" as="sourcePoint" />
            <mxPoint x="850" y="710" as="targetPoint" />
          </mxGeometry>
        </mxCell>
        <mxCell id="ANaxV4xXnxvf2CdGt_C1-78" value="" style="endArrow=none;html=1;rounded=0;exitX=1;exitY=0.5;exitDx=0;exitDy=0;entryX=0;entryY=0.5;entryDx=0;entryDy=0;" parent="WIyWlLk6GJQsqaUBKTNV-1" source="ANaxV4xXnxvf2CdGt_C1-66" target="ANaxV4xXnxvf2CdGt_C1-70" edge="1">
          <mxGeometry relative="1" as="geometry">
            <mxPoint x="690" y="710" as="sourcePoint" />
            <mxPoint x="820" y="740" as="targetPoint" />
          </mxGeometry>
        </mxCell>
        <mxCell id="ANaxV4xXnxvf2CdGt_C1-82" value="" style="endArrow=none;html=1;rounded=0;exitX=0.5;exitY=1;exitDx=0;exitDy=0;entryX=0.5;entryY=0;entryDx=0;entryDy=0;" parent="WIyWlLk6GJQsqaUBKTNV-1" source="ANaxV4xXnxvf2CdGt_C1-66" target="ANaxV4xXnxvf2CdGt_C1-74" edge="1">
          <mxGeometry relative="1" as="geometry">
            <mxPoint x="785" y="800" as="sourcePoint" />
            <mxPoint x="790" y="860" as="targetPoint" />
          </mxGeometry>
        </mxCell>
        <mxCell id="ANaxV4xXnxvf2CdGt_C1-83" value="" style="endArrow=none;html=1;rounded=0;exitX=0;exitY=1;exitDx=0;exitDy=0;entryX=1;entryY=0.5;entryDx=0;entryDy=0;" parent="WIyWlLk6GJQsqaUBKTNV-1" source="ANaxV4xXnxvf2CdGt_C1-66" target="ANaxV4xXnxvf2CdGt_C1-75" edge="1">
          <mxGeometry relative="1" as="geometry">
            <mxPoint x="760" y="800" as="sourcePoint" />
            <mxPoint x="725" y="834" as="targetPoint" />
          </mxGeometry>
        </mxCell>
        <mxCell id="ANaxV4xXnxvf2CdGt_C1-84" value="" style="endArrow=none;html=1;rounded=0;exitX=0;exitY=0;exitDx=0;exitDy=0;entryX=1;entryY=0.5;entryDx=0;entryDy=0;" parent="WIyWlLk6GJQsqaUBKTNV-1" source="ANaxV4xXnxvf2CdGt_C1-66" target="ANaxV4xXnxvf2CdGt_C1-67" edge="1">
          <mxGeometry relative="1" as="geometry">
            <mxPoint x="760" y="785" as="sourcePoint" />
            <mxPoint x="690" y="785" as="targetPoint" />
          </mxGeometry>
        </mxCell>
        <mxCell id="ANaxV4xXnxvf2CdGt_C1-3" value="退貨訊息" style="html=1;whiteSpace=wrap;" vertex="1" parent="WIyWlLk6GJQsqaUBKTNV-1">
          <mxGeometry x="690" y="1060" width="60" height="30" as="geometry" />
        </mxCell>
        <mxCell id="ANaxV4xXnxvf2CdGt_C1-5" value="交易單號" style="ellipse;whiteSpace=wrap;html=1;" vertex="1" parent="WIyWlLk6GJQsqaUBKTNV-1">
          <mxGeometry x="690" y="990" width="70" height="30" as="geometry" />
        </mxCell>
        <mxCell id="ANaxV4xXnxvf2CdGt_C1-17" value="退貨日期" style="ellipse;whiteSpace=wrap;html=1;" vertex="1" parent="WIyWlLk6GJQsqaUBKTNV-1">
          <mxGeometry x="800" y="1060" width="70" height="30" as="geometry" />
        </mxCell>
        <mxCell id="ANaxV4xXnxvf2CdGt_C1-19" value="退款金額" style="ellipse;whiteSpace=wrap;html=1;" vertex="1" parent="WIyWlLk6GJQsqaUBKTNV-1">
          <mxGeometry x="685" y="1138" width="70" height="30" as="geometry" />
        </mxCell>
        <mxCell id="ANaxV4xXnxvf2CdGt_C1-21" value="商品編號" style="ellipse;whiteSpace=wrap;html=1;" vertex="1" parent="WIyWlLk6GJQsqaUBKTNV-1">
          <mxGeometry x="570" y="1070" width="70" height="30" as="geometry" />
        </mxCell>
        <mxCell id="ANaxV4xXnxvf2CdGt_C1-30" value="" style="endArrow=none;html=1;rounded=0;exitX=1;exitY=0.5;exitDx=0;exitDy=0;entryX=0;entryY=0.5;entryDx=0;entryDy=0;" edge="1" parent="WIyWlLk6GJQsqaUBKTNV-1" source="ANaxV4xXnxvf2CdGt_C1-3" target="ANaxV4xXnxvf2CdGt_C1-17">
          <mxGeometry relative="1" as="geometry">
            <mxPoint x="640" y="1010" as="sourcePoint" />
            <mxPoint x="770" y="1040" as="targetPoint" />
          </mxGeometry>
        </mxCell>
        <mxCell id="ANaxV4xXnxvf2CdGt_C1-32" value="" style="endArrow=none;html=1;rounded=0;exitX=0.5;exitY=1;exitDx=0;exitDy=0;entryX=0.5;entryY=0;entryDx=0;entryDy=0;" edge="1" parent="WIyWlLk6GJQsqaUBKTNV-1" source="ANaxV4xXnxvf2CdGt_C1-3" target="ANaxV4xXnxvf2CdGt_C1-19">
          <mxGeometry relative="1" as="geometry">
            <mxPoint x="735" y="1100" as="sourcePoint" />
            <mxPoint x="740" y="1160" as="targetPoint" />
          </mxGeometry>
        </mxCell>
        <mxCell id="ANaxV4xXnxvf2CdGt_C1-34" value="" style="endArrow=none;html=1;rounded=0;exitX=0;exitY=0.5;exitDx=0;exitDy=0;entryX=1;entryY=0.5;entryDx=0;entryDy=0;" edge="1" parent="WIyWlLk6GJQsqaUBKTNV-1" source="ANaxV4xXnxvf2CdGt_C1-3" target="ANaxV4xXnxvf2CdGt_C1-21">
          <mxGeometry relative="1" as="geometry">
            <mxPoint x="710" y="1100" as="sourcePoint" />
            <mxPoint x="675" y="1134" as="targetPoint" />
          </mxGeometry>
        </mxCell>
        <mxCell id="ANaxV4xXnxvf2CdGt_C1-46" value="" style="endArrow=none;html=1;rounded=0;exitX=0.5;exitY=0;exitDx=0;exitDy=0;entryX=0.5;entryY=1;entryDx=0;entryDy=0;" edge="1" parent="WIyWlLk6GJQsqaUBKTNV-1" source="ANaxV4xXnxvf2CdGt_C1-3" target="ANaxV4xXnxvf2CdGt_C1-5">
          <mxGeometry relative="1" as="geometry">
            <mxPoint x="710" y="1085" as="sourcePoint" />
            <mxPoint x="640" y="1085" as="targetPoint" />
          </mxGeometry>
        </mxCell>
        <mxCell id="ANaxV4xXnxvf2CdGt_C1-47" value="會員" style="html=1;whiteSpace=wrap;" vertex="1" parent="WIyWlLk6GJQsqaUBKTNV-1">
          <mxGeometry x="280" y="1070" width="50.5" height="30" as="geometry" />
        </mxCell>
        <mxCell id="ANaxV4xXnxvf2CdGt_C1-49" value="會員卡號" style="ellipse;whiteSpace=wrap;html=1;" vertex="1" parent="WIyWlLk6GJQsqaUBKTNV-1">
          <mxGeometry x="195" y="1150" width="70" height="30" as="geometry" />
        </mxCell>
        <mxCell id="ANaxV4xXnxvf2CdGt_C1-50" value="會員姓名" style="ellipse;whiteSpace=wrap;html=1;" vertex="1" parent="WIyWlLk6GJQsqaUBKTNV-1">
          <mxGeometry x="160" y="1060" width="70" height="30" as="geometry" />
        </mxCell>
        <mxCell id="ANaxV4xXnxvf2CdGt_C1-52" value="註冊日期" style="ellipse;whiteSpace=wrap;html=1;" vertex="1" parent="WIyWlLk6GJQsqaUBKTNV-1">
          <mxGeometry x="210" y="970" width="70" height="30" as="geometry" />
        </mxCell>
        <mxCell id="ANaxV4xXnxvf2CdGt_C1-53" value="電話" style="ellipse;whiteSpace=wrap;html=1;" vertex="1" parent="WIyWlLk6GJQsqaUBKTNV-1">
          <mxGeometry x="370" y="990" width="70" height="30" as="geometry" />
        </mxCell>
        <mxCell id="ANaxV4xXnxvf2CdGt_C1-55" value="餘額" style="ellipse;whiteSpace=wrap;html=1;" vertex="1" parent="WIyWlLk6GJQsqaUBKTNV-1">
          <mxGeometry x="390" y="1070" width="70" height="30" as="geometry" />
        </mxCell>
        <mxCell id="ANaxV4xXnxvf2CdGt_C1-56" value="累計消費金額" style="ellipse;whiteSpace=wrap;html=1;" vertex="1" parent="WIyWlLk6GJQsqaUBKTNV-1">
          <mxGeometry x="335" y="1153" width="89.5" height="30" as="geometry" />
        </mxCell>
        <mxCell id="ANaxV4xXnxvf2CdGt_C1-62" value="" style="endArrow=none;html=1;rounded=0;exitX=0;exitY=0.5;exitDx=0;exitDy=0;entryX=1;entryY=0.5;entryDx=0;entryDy=0;" edge="1" parent="WIyWlLk6GJQsqaUBKTNV-1" source="ANaxV4xXnxvf2CdGt_C1-47" target="ANaxV4xXnxvf2CdGt_C1-50">
          <mxGeometry relative="1" as="geometry">
            <mxPoint x="220.5" y="1020" as="sourcePoint" />
            <mxPoint x="380.5" y="1020" as="targetPoint" />
          </mxGeometry>
        </mxCell>
        <mxCell id="ANaxV4xXnxvf2CdGt_C1-71" value="" style="endArrow=none;html=1;rounded=0;exitX=0;exitY=0;exitDx=0;exitDy=0;entryX=0.5;entryY=1;entryDx=0;entryDy=0;" edge="1" parent="WIyWlLk6GJQsqaUBKTNV-1" source="ANaxV4xXnxvf2CdGt_C1-47" target="ANaxV4xXnxvf2CdGt_C1-52">
          <mxGeometry relative="1" as="geometry">
            <mxPoint x="220.5" y="1020" as="sourcePoint" />
            <mxPoint x="380.5" y="1020" as="targetPoint" />
          </mxGeometry>
        </mxCell>
        <mxCell id="ANaxV4xXnxvf2CdGt_C1-72" value="" style="endArrow=none;html=1;rounded=0;exitX=1;exitY=0;exitDx=0;exitDy=0;entryX=0.5;entryY=1;entryDx=0;entryDy=0;" edge="1" parent="WIyWlLk6GJQsqaUBKTNV-1" source="ANaxV4xXnxvf2CdGt_C1-47" target="ANaxV4xXnxvf2CdGt_C1-53">
          <mxGeometry relative="1" as="geometry">
            <mxPoint x="220.5" y="1020" as="sourcePoint" />
            <mxPoint x="350.5" y="1050" as="targetPoint" />
          </mxGeometry>
        </mxCell>
        <mxCell id="ANaxV4xXnxvf2CdGt_C1-73" value="" style="endArrow=none;html=1;rounded=0;exitX=1;exitY=0.5;exitDx=0;exitDy=0;entryX=0;entryY=0.5;entryDx=0;entryDy=0;" edge="1" parent="WIyWlLk6GJQsqaUBKTNV-1" source="ANaxV4xXnxvf2CdGt_C1-47" target="ANaxV4xXnxvf2CdGt_C1-55">
          <mxGeometry relative="1" as="geometry">
            <mxPoint x="220.5" y="1020" as="sourcePoint" />
            <mxPoint x="380.5" y="1020" as="targetPoint" />
          </mxGeometry>
        </mxCell>
        <mxCell id="ANaxV4xXnxvf2CdGt_C1-79" value="" style="endArrow=none;html=1;rounded=0;exitX=1;exitY=1;exitDx=0;exitDy=0;entryX=0;entryY=0;entryDx=0;entryDy=0;" edge="1" parent="WIyWlLk6GJQsqaUBKTNV-1" source="ANaxV4xXnxvf2CdGt_C1-47" target="ANaxV4xXnxvf2CdGt_C1-56">
          <mxGeometry relative="1" as="geometry">
            <mxPoint x="220.5" y="1020" as="sourcePoint" />
            <mxPoint x="380.5" y="1020" as="targetPoint" />
          </mxGeometry>
        </mxCell>
        <mxCell id="ANaxV4xXnxvf2CdGt_C1-86" value="" style="endArrow=none;html=1;rounded=0;exitX=0;exitY=1;exitDx=0;exitDy=0;entryX=1;entryY=0.5;entryDx=0;entryDy=0;" edge="1" parent="WIyWlLk6GJQsqaUBKTNV-1" source="ANaxV4xXnxvf2CdGt_C1-47" target="ANaxV4xXnxvf2CdGt_C1-49">
          <mxGeometry relative="1" as="geometry">
            <mxPoint x="290.5" y="1095" as="sourcePoint" />
            <mxPoint x="220.5" y="1095" as="targetPoint" />
          </mxGeometry>
        </mxCell>
        <mxCell id="ANaxV4xXnxvf2CdGt_C1-87" value="倉庫" style="html=1;whiteSpace=wrap;" vertex="1" parent="WIyWlLk6GJQsqaUBKTNV-1">
          <mxGeometry x="260" y="1340" width="60" height="30" as="geometry" />
        </mxCell>
        <mxCell id="ANaxV4xXnxvf2CdGt_C1-88" value="倉庫地址" style="ellipse;whiteSpace=wrap;html=1;" vertex="1" parent="WIyWlLk6GJQsqaUBKTNV-1">
          <mxGeometry x="360" y="1270" width="70" height="30" as="geometry" />
        </mxCell>
        <mxCell id="ANaxV4xXnxvf2CdGt_C1-90" value="倉庫編號" style="ellipse;whiteSpace=wrap;html=1;" vertex="1" parent="WIyWlLk6GJQsqaUBKTNV-1">
          <mxGeometry x="255" y="1418" width="70" height="30" as="geometry" />
        </mxCell>
        <mxCell id="ANaxV4xXnxvf2CdGt_C1-91" value="倉庫名稱" style="ellipse;whiteSpace=wrap;html=1;" vertex="1" parent="WIyWlLk6GJQsqaUBKTNV-1">
          <mxGeometry x="140" y="1270" width="70" height="30" as="geometry" />
        </mxCell>
        <mxCell id="ANaxV4xXnxvf2CdGt_C1-93" value="" style="endArrow=none;html=1;rounded=0;exitX=0.5;exitY=1;exitDx=0;exitDy=0;entryX=0.5;entryY=0;entryDx=0;entryDy=0;" edge="1" parent="WIyWlLk6GJQsqaUBKTNV-1" source="ANaxV4xXnxvf2CdGt_C1-87" target="ANaxV4xXnxvf2CdGt_C1-90">
          <mxGeometry relative="1" as="geometry">
            <mxPoint x="305" y="1380" as="sourcePoint" />
            <mxPoint x="310" y="1440" as="targetPoint" />
          </mxGeometry>
        </mxCell>
        <mxCell id="ANaxV4xXnxvf2CdGt_C1-94" value="" style="endArrow=none;html=1;rounded=0;exitX=0;exitY=0;exitDx=0;exitDy=0;entryX=1;entryY=0.5;entryDx=0;entryDy=0;" edge="1" parent="WIyWlLk6GJQsqaUBKTNV-1" source="ANaxV4xXnxvf2CdGt_C1-87" target="ANaxV4xXnxvf2CdGt_C1-91">
          <mxGeometry relative="1" as="geometry">
            <mxPoint x="280" y="1380" as="sourcePoint" />
            <mxPoint x="245" y="1414" as="targetPoint" />
          </mxGeometry>
        </mxCell>
        <mxCell id="ANaxV4xXnxvf2CdGt_C1-95" value="" style="endArrow=none;html=1;rounded=0;exitX=1;exitY=0;exitDx=0;exitDy=0;entryX=0.5;entryY=1;entryDx=0;entryDy=0;" edge="1" parent="WIyWlLk6GJQsqaUBKTNV-1" source="ANaxV4xXnxvf2CdGt_C1-87" target="ANaxV4xXnxvf2CdGt_C1-88">
          <mxGeometry relative="1" as="geometry">
            <mxPoint x="280" y="1365" as="sourcePoint" />
            <mxPoint x="210" y="1365" as="targetPoint" />
          </mxGeometry>
        </mxCell>
      </root>
    </mxGraphModel>
  </diagram>
</mxfile>
